<mxfile host="Electron" modified="2023-10-04T09:42:14.022Z" agent="5.0 (Windows NT 10.0; Win64; x64) AppleWebKit/537.36 (KHTML, like Gecko) draw.io/20.3.0 Chrome/104.0.5112.114 Electron/20.1.3 Safari/537.36" etag="Gs0_ZxdeIJegQqULy04A" compressed="false" version="20.3.0" type="device">
  <diagram name="ND0016" id="1CP9VX86ncTdAmcYDIcw">
    <mxGraphModel dx="782" dy="531" grid="1" gridSize="2" guides="1" tooltips="1" connect="1" arrows="1" fold="1" page="1" pageScale="1" pageWidth="1169" pageHeight="827" math="0" shadow="0">
      <root>
        <mxCell id="22vkG-h5v2N9dKBLQ-ZE-0" />
        <mxCell id="22vkG-h5v2N9dKBLQ-ZE-135" value="Label" style="" parent="22vkG-h5v2N9dKBLQ-ZE-0" />
        <object label="Symbol" Width="12" Height="12" UoM="mm" id="22vkG-h5v2N9dKBLQ-ZE-138">
          <mxCell style="locked=1;" parent="22vkG-h5v2N9dKBLQ-ZE-0" />
        </object>
        <mxCell id="hqkzYWXJw5HVD3Sl_868-246" value="" style="ellipse;whiteSpace=wrap;html=1;aspect=fixed;fillColor=none;points=[[0,0.5,0,0,0],[0.19,0.1,0,0,0],[0.27,0.94,0,0,0],[0.5,0,0,0,0],[0.5,1,0,0,0],[0.76,0.94,0,0,0],[0.81,0.1,0,0,0],[0.98,0.47,0,0,0]];rounded=0;" parent="22vkG-h5v2N9dKBLQ-ZE-138" vertex="1">
          <mxGeometry x="240" y="240" width="192" height="192" as="geometry" />
        </mxCell>
        <mxCell id="hqkzYWXJw5HVD3Sl_868-261" value="" style="ellipse;whiteSpace=wrap;html=1;aspect=fixed;fillColor=none;rounded=0;strokeWidth=3;" parent="22vkG-h5v2N9dKBLQ-ZE-138" vertex="1">
          <mxGeometry x="316" y="316" width="40" height="40" as="geometry" />
        </mxCell>
        <mxCell id="hqkzYWXJw5HVD3Sl_868-287" value="" style="group" parent="22vkG-h5v2N9dKBLQ-ZE-138" vertex="1" connectable="0">
          <mxGeometry x="299" y="366" width="76" height="65.315" as="geometry" />
        </mxCell>
        <mxCell id="hqkzYWXJw5HVD3Sl_868-280" value="" style="shape=trapezoid;perimeter=trapezoidPerimeter;whiteSpace=wrap;html=1;fixedSize=1;strokeWidth=1;fillColor=#000000;rotation=0;" parent="hqkzYWXJw5HVD3Sl_868-287" vertex="1">
          <mxGeometry width="76" height="58" as="geometry" />
        </mxCell>
        <mxCell id="hqkzYWXJw5HVD3Sl_868-282" value="" style="shape=xor;whiteSpace=wrap;html=1;strokeWidth=1;fillColor=#000000;rotation=90;" parent="hqkzYWXJw5HVD3Sl_868-287" vertex="1">
          <mxGeometry x="32.94" y="24" width="10.13" height="72.5" as="geometry" />
        </mxCell>
        <mxCell id="hqkzYWXJw5HVD3Sl_868-292" value="" style="shape=trapezoid;perimeter=trapezoidPerimeter;whiteSpace=wrap;html=1;fixedSize=1;strokeWidth=1;fillColor=#000000;rotation=120;" parent="22vkG-h5v2N9dKBLQ-ZE-138" vertex="1">
          <mxGeometry x="246.57" y="278.25" width="76" height="59" as="geometry" />
        </mxCell>
        <mxCell id="hqkzYWXJw5HVD3Sl_868-293" value="" style="shape=xor;whiteSpace=wrap;html=1;strokeWidth=1;fillColor=#000000;rotation=210;" parent="22vkG-h5v2N9dKBLQ-ZE-138" vertex="1">
          <mxGeometry x="252" y="255.86" width="12.13" height="72.97" as="geometry" />
        </mxCell>
        <mxCell id="hqkzYWXJw5HVD3Sl_868-289" value="" style="shape=trapezoid;perimeter=trapezoidPerimeter;whiteSpace=wrap;html=1;fixedSize=1;strokeWidth=1;fillColor=#000000;rotation=-123;" parent="22vkG-h5v2N9dKBLQ-ZE-138" vertex="1">
          <mxGeometry x="348.0038456605013" y="273.99588333527777" width="76" height="58" as="geometry" />
        </mxCell>
        <mxCell id="hqkzYWXJw5HVD3Sl_868-290" value="" style="shape=xor;whiteSpace=wrap;html=1;strokeWidth=1;fillColor=#000000;rotation=-33;" parent="22vkG-h5v2N9dKBLQ-ZE-138" vertex="1">
          <mxGeometry x="406.0038456605013" y="249.9958833352778" width="10.13" height="72.5" as="geometry" />
        </mxCell>
        <mxCell id="22vkG-h5v2N9dKBLQ-ZE-124" value="Connection" style="" parent="22vkG-h5v2N9dKBLQ-ZE-0" />
        <object label="Connection" PipingConnector="N" LabelConnector="Y" SignalConnector="N" Direction="45, 135, 225, 315" id="hqkzYWXJw5HVD3Sl_868-297">
          <mxCell style="vsdxID=1407;fillColor=none;gradientColor=none;shape=stencil(rVFbDsIgEDwNnyQU4glqvcfGblsilmZBS28vZGMsxg9j/JvZmX1kR5g2TLCg0CpE8hdcbR8nYY5CaztPSDZmJEwnTDt4wpH8be6ZL1CcBV39vUxI3KdKh1YbswPTEzuBzlmiVGmKau9zUKM+jlJJQrJBko8QrZ+rrQ5oRJnXyMHBWElhRVx25ebnw/5zVvPFWRm83jxY5zilvf4eSy5xpKZ7AA==);strokeColor=#00ff00;strokeWidth=1;points=[[0.5,0.5,0,0,0]];labelBackgroundColor=none;rounded=0;html=1;whiteSpace=wrap;aspect=fixed;noLabel=1;snapToPoint=1;container=0;fontSize=16;" parent="22vkG-h5v2N9dKBLQ-ZE-124" vertex="1">
            <mxGeometry x="248" y="378" width="12" height="12" as="geometry" />
          </mxCell>
        </object>
        <mxCell id="22vkG-h5v2N9dKBLQ-ZE-136" value="Origo" style="" parent="22vkG-h5v2N9dKBLQ-ZE-0" visible="0" />
        <object label="origo" id="hqkzYWXJw5HVD3Sl_868-296">
          <mxCell style="vsdxID=1407;fillColor=none;gradientColor=none;shape=stencil(rVFbDsIgEDwNnyQU4glqvcfGblsilmZBS28vZGMsxg9j/JvZmX1kR5g2TLCg0CpE8hdcbR8nYY5CaztPSDZmJEwnTDt4wpH8be6ZL1CcBV39vUxI3KdKh1YbswPTEzuBzlmiVGmKau9zUKM+jlJJQrJBko8QrZ+rrQ5oRJnXyMHBWElhRVx25ebnw/5zVvPFWRm83jxY5zilvf4eSy5xpKZ7AA==);strokeColor=#ff0000;strokeWidth=1;points=[[0.5,0.5,0,0,0]];labelBackgroundColor=none;rounded=0;html=1;whiteSpace=wrap;aspect=fixed;noLabel=1;snapToPoint=1;" parent="22vkG-h5v2N9dKBLQ-ZE-136" vertex="1">
            <mxGeometry x="332" y="332" width="8" height="8" as="geometry" />
          </mxCell>
        </object>
      </root>
    </mxGraphModel>
  </diagram>
</mxfile>
